<?xml version="1.0" encoding="utf-8"?>
<!-- Generator: Adobe Illustrator 22.1.0, SVG Export Plug-In . SVG Version: 6.00 Build 0)  -->
<svg version="1.1" id="Layer_1" xmlns="http://www.w3.org/2000/svg" xmlns:xlink="http://www.w3.org/1999/xlink" x="0px" y="0px"
	 width="792px" height="792px" viewBox="0 0 792 792" style="enable-background:new 0 0 792 792;" xml:space="preserve">
<g>
	<path d="M401.8,40.8c16.9,0,28.8,8,34,23.4c3.4,9.9,1.9,19.5-3.6,28.3c-1.4,2.2-1.2,3,1.1,4.2c5.8,3.1,8.6,8.1,7.8,14.8
		c-0.4,2.7,0.5,3.7,3.2,4.4c32,8.2,59.8,23.7,82.6,47.7c21.6,22.8,35.7,49.5,41.5,80.6c1.7,9,1.8,18.1,2.9,27.1
		c2.3,18.1,2.3,36.4,3.8,54.5c0.6,7.3,0.5,14.6,0.8,21.9c0.7,15.4,0.4,30.9,1.2,46.3c1.4,25.9,1.5,51.8,1,77.7
		c-0.6,29.4-0.6,58.9-0.4,88.3c0.1,19.2,0.7,38.4,1.5,57.6c0.3,6.4,3.6,12.1,6.1,17.8c6.2,14.1,14.1,27.1,24.1,38.9
		c5.1,6,11.8,9.7,17.6,14.6c13.3,11.3,25.5,23.6,35.4,38.1c1.9,2.7,3.6,5.5,4.6,8.7c1.2,3.7-0.1,5.2-3.9,4.8
		c-1.7-0.2-3.4-0.2-5.1-0.2c-170.8,0-341.7,0-512.5,0c-1.8,0-3.6,0.1-5.5,0.3c-3.1,0.3-4.3-0.9-3.6-4c0.5-2.4,1.7-4.6,3-6.6
		c11.6-18,26.3-33.2,43.6-45.7c10.5-7.6,17.8-17.6,24.5-28.1c7-10.9,12.3-22.7,16.4-34.9c0.4-1.1,0.7-2.4,0.7-3.5
		c0.3-8.7,0.6-17.5,0.8-26.2c1-35.4,1.1-70.8,0.5-106.2c-0.3-18.5-0.7-37-0.4-55.5c0.4-27.8,1.2-55.7,2.2-83.5
		c0.6-18.8,1.3-37.7,2.9-56.4c1.9-20.9,2-42,8.5-62.3c6.8-21.4,17.3-40.6,31.9-57.7c14.2-16.7,31.2-29.9,50.7-40
		c11.9-6.2,24.5-10.7,37.5-14.1c2.4-0.6,3.8-1.3,3.3-4.3c-1-6.8,1.9-11.9,7.9-15c2.3-1.2,2.2-1.9,1-4c-8.4-14-6.9-30,3.9-41.4
		C382.6,43.8,391.5,40.5,401.8,40.8z M396.4,612.5c-2.7,0-5.4,0-8,0c-2.4,0-2.8,0.9-1.5,2.9c5.6,8.5,12.2,16.1,20.2,22.3
		c2.9,2.2,6,3.2,9.9,2.7c7.7-0.9,14.9-3.3,22.1-5.9c19.7-7,38.1-16.5,56.3-26.7c23.9-13.4,47.1-27.8,68.8-44.7
		c6.5-5.1,9.9-10.7,8.9-19.2c-0.5-4.4-0.7-8.1-5.5-9.9c-1.3-0.5-2.4-1.6-3.6-2.5c-12.8-9.9-23.9-21.4-35.1-32.9
		c-7.6-7.8-14.7-15.9-20.8-24.9c-2-3-3.7-3.4-6.8-2.1c-12.6,5.3-25.7,4.5-38.8,2.7c-2.4-0.3-4.2,0.3-6,1.7
		c-12.8,10.5-25.8,20.7-38,31.9c-4.8,4.4-11.1,7.8-14,13.7c-7.4,15-12.2,30.7-11.7,47.7c0.5,15.8,5.9,28.7,21,36
		c1,0.5,1.9,1.2,1.9,2.4c0,1.4-1,2.1-2.2,2.6C408.1,612.8,402.3,612.5,396.4,612.5z M401.9,736.6c85.1,0,170.3,0,255.4,0
		c4.6,0,4.9-0.4,2.5-4.3c-7.2-11.7-16.5-21.6-26.4-31c-2.7-2.6-5.5-3.4-9.1-3.4c-78.3,0.1-156.7,0.1-235,0.1
		c-70.2,0-140.4,0-210.6,0c-3.1,0-5.5,0.8-7.9,2.9c-5.7,5.1-10.8,10.9-15.9,16.5c-4.4,4.8-8.4,10.1-11.6,15.9
		c-1.4,2.6-0.8,3.6,2.1,3.3c0.5,0,1,0,1.5,0C231.9,736.6,316.9,736.6,401.9,736.6z M286.2,683.2c29,0,57.9,0,86.9,0
		c1.1,0,2.2,0,3.3,0c0.7,0,1.6,0.1,1.9-0.8c0.2-0.8-0.4-1.4-1-1.8c-3.4-2.6-6.6-5.4-10.2-7.6c-14.2-8.5-28.5-16.8-42.8-25.1
		c-1.8-1-3.5-1.9-3.2-4.7c1.7-16.2,4.1-32.3,9-48c2-6.5,5.1-12.8,6.3-19.4c2.4-14.4,2.1-29.1,1.5-43.7c-0.1-3.1,1-3.8,3.7-3.8
		c5,0,9.6,1.5,14.2,2.9c3.3,1,4.7,0.4,4.8-3.1c0.2-6,0.4-11.9-0.1-17.9c-0.4-4.3-1.6-8.6-3.7-12.5c-1.3-2.3-3-4.3-5.8-4.6
		c-5.1-0.6-10.2-1-15.2,0.4c-8.3,2.2-15.7,6.5-23,10.9c-1.9,1.1-3.2,2.7-3.5,4.9c-0.6,5.2-2.4,10.2-4,15.1
		c-9.1,28.6-21.4,55.6-40.4,79.1c-9,11.2-19.4,20.6-33.3,25.1c-4.2,1.3-6.3,3.7-8,7.5c-7,16-15.5,31.1-27.7,43.9
		c-0.6,0.7-1.8,1.3-1.2,2.4c0.5,1,1.7,0.7,2.7,0.7c1,0.1,1.9,0,2.9,0C228.7,683.2,257.5,683.2,286.2,683.2z M498.6,683.2
		c33,0,65.9,0,98.9,0c3.3,0,6.6,0,9.9,0c0.8,0,1.9,0.2,2.2-0.8c0.2-0.8-0.5-1.3-1-1.8c-11.4-11.8-19.5-25.7-26.4-40.4
		c-3.1-6.7-6.9-13.4-7.6-20.8c-0.8-9.4-1.6-18.9-1.5-28.4c0-8.4-0.1-16.8-0.1-25.2c0-0.9,0.3-2.1-0.7-2.6c-1.1-0.5-1.7,0.6-2.4,1.2
		c-10.4,8.8-21.6,16.6-33,24.1c-14.8,9.8-30.1,18.8-45.8,27.2c-18.5,10-37.4,19.2-57.5,25.7c-9.6,3.1-19.9,4-28.7,10
		c-9.3,6.3-19.5,11.4-29.3,17.1c-3.2,1.9-3.3,2.5-0.3,4.9c3.1,2.5,6.4,4.8,9.5,7.4c2.3,1.9,4.7,2.6,7.7,2.6
		C427.8,683.1,463.2,683.2,498.6,683.2z M302.8,406c14.8-1.1,30.2,2.2,45.5,6.5c16.2,4.5,27.1,14.5,32.4,30.2
		c4.6,13.6,3.3,27.4-1.1,40.9c-1.6,4.9-2.1,9.5,0,14.4c1.1,2.6,1.8,2.9,3.5,0.6c6.8-9,11.7-19.1,16.4-29.2c0.2-0.4,0.2-0.9,0.3-1.4
		c1.5-12.7-2.1-24.1-9.1-34.5c-2.1-3.2-2-4.4,1.7-5.5c4-1.2,7.8-3,10.9-5.7c4.6-3.9,10.4-7.7,11-14.1c1.1-11,1.1-22.1-2.2-32.9
		c-0.4-1.2-0.4-3-2.1-3.1c-1.3,0-1.7,1.6-2.2,2.7c-3.1,6.8-6,13.6-9.1,20.3c-0.6,1.4-1.2,3.1-3.2,3.1c-1.9,0-2.6-1.6-3.3-3
		c-3-5.8-5.9-11.7-8.9-17.6c-0.6-1.1-1-2.8-2.6-2.7c-1.5,0.1-1.9,1.7-2.5,2.9c-0.3,0.6-0.6,1.3-0.8,2c-3.3,8.2-3.8,16.5-1.7,25
		c0.4,1.8,1.2,4.1-0.8,5.3c-1.9,1.1-3.4-0.7-4.8-1.8c-5.6-4.3-9.2-10.1-11.6-16.5c-4.7-12.9-3.9-28.2,9.9-36.4
		c2.2-1.3,2.6-2.7,0.6-4.5c-3.6-3.4-6.2-7.5-8.8-11.6c-6.4-9.9-11.8-20.4-18.8-29.9c-12.9-17.5-29.4-29.9-50.7-35.4
		c-3.4-0.9-5.7-0.2-7.5,3.1c-3.6,6.7-5.9,13.9-7.9,21.2c-4.8,18.5-8.1,37.2-9.8,56.3c-0.9,11.1-1.2,22.1-1.2,33.1
		c0,5.6,1,11.1,1.7,16.7c0.4,2.8,1.6,4.9,5.1,3.9C281.2,405.9,291.4,405.7,302.8,406z M470.9,292.8c0,2.4,0,4.9,0,7.3
		c0,9.5-0.4,7.8,7.7,7.9c6.3,0.1,10.5,3,12.7,9c1,2.6,1.7,5.4,1.5,8.2c-0.4,9.3-3,17.9-7.4,26.1c-0.2,0.4-0.5,0.8-0.8,1.2
		c-0.8,1-1.8,1.8-3.1,1.5c-1.5-0.3-1.6-1.6-1.7-2.9c-0.6-8.3-4.4-15.1-10.4-20.7c-3.6-3.4-6.3-2.6-7.6,2.1c-0.5,1.6,0.4,2.8,0.9,4.1
		c4.6,11.7,4.8,23.5,0.4,35.2c-1.7,4.4-3.7,4.5-6.8,1.1c-1.3-1.5-2.4-3.6-4.7-3.8c-3.6-0.4-9.7,5.5-9.8,9.2
		c-0.1,8.3,1.7,16.4,1.4,24.7c-0.5,15.5,1.2,31.1-1.1,46.6c-0.5,3.2,1.8,2.2,3.3,1.4c5.9-3,11.1-6.9,15.1-12.4
		c2.2-3,4.9-5.8,5.1-9.9c0.3-7.7,0.7-15.3-0.9-22.9c-1.2-5.9-3.2-11.5-6-16.7c-1.7-3.2-1-4.4,2.7-4.4c0.7,0,1.5,0,2.2,0.2
		c10.5,1.5,20.3-0.5,29.7-5.2c17.5-8.7,30.8-22.3,43.9-36.3c11.7-12.5,19.3-28,30.1-41.1c0.6-0.8,1.1-1.6,1-2.6
		c-0.4-7.2-0.8-14.3-1.2-21.5c-0.2-4.7-2.1-8.5-6.1-11.4c-19.8-14.2-41.3-24-66.1-25.5c-7.7-0.4-13.9,2.1-17.5,9.3
		c-1.6,3.2-2.7,6.5-3.6,9.9C471.2,271.1,471,281.9,470.9,292.8z M240,428c-9.2-0.2-9.2-0.2-9.2,6.2c0.1,30.9-0.1,61.8,0.3,92.6
		c0.1,7,1.1,11.8,7.1,16.6c13.3,10.6,22.8,24.5,30.1,39.8c2.1,4.3,2.7,4.4,5.2,0.3c13-20.9,22.5-43.3,29.2-66.9
		c1.9-6.5,4-13.1,2.5-20c-4.5-20.7-13-39.2-29.5-53.2C264.6,434,251.7,428.8,240,428z M450.8,124.8c0.2-1.7-0.9-2.2-1.9-2.4
		c-3.1-0.8-6.1-1.5-9.2-2.3c-1.5-0.4-2.8,0.2-4.1,1c-5.9,3.8-12.5,3.5-17.9-0.7c-1.4-1.1-2.2-1.3-3.7,0c-8,7.5-16.3,7.5-24.1,0.1
		c-1.4-1.3-2.3-1.3-3.7-0.2c-5.5,4.3-12.1,4.6-17.9,0.8c-1.6-1-3-1.3-4.8-0.9c-6.9,1.5-13.7,3.5-20.3,5.9
		c-18.5,6.8-35.4,16.5-50.5,29.3c-10.1,8.5-18.9,18.2-26.5,29c-1.1,1.6-2.7,3.3,1.1,3.9c18.2,2.8,35.4,8.5,51.5,17.5
		c4.3,2.4,4.3,2.5,6.7-1.8c6.9-12.4,17-19.7,31.3-20.9c1.9-0.2,2.6-1.3,3.2-2.9c5.8-15,16-26.2,29.9-34.2c6.7-3.9,10.8-2.3,13.7,4.9
		c0.4,1,0.9,2.1,1,3.1c0.3,3.8,2.6,4.4,6,4.4c9.8,0,19.4,1.2,28.1,6.4c3.2,1.9,3.5,1.7,3.6-2.2c0.3-12.5,3-24.6,7.8-36.1
		C450.4,125.9,450.6,125.2,450.8,124.8z M565.7,264c-0.4-4.8-0.6-8.8-1.1-12.8c-4.9-32.9-19.2-61.3-42.1-85.2
		c-17.3-18.1-38.1-31.1-61.6-40c-3.5-1.3-5.1-0.6-6.4,2.7c-4.4,10.6-6.7,21.6-7.4,32.9c-0.3,5.5-0.5,10.8,2.9,15.8
		c2,2.9,2.8,6.5,2.8,10.1c0,2.1,1,3,3,3.2c4.3,0.4,8.4,1.4,12.2,3.4c15.7,8.4,25.5,21.4,30,38.5c0.6,2.4,1.3,3.8,4,4.3
		c17.1,2.7,33.1,8.7,48.2,17.1C555.3,256.8,559.8,260.5,565.7,264z M233.5,333.7c0,3.8,0,7.5,0,11.3c0,1.5-1,3.7,0.7,4.3
		c1.5,0.5,2.4-1.7,3.4-2.8c6.8-7.7,14-15,23.3-19.6c2.8-1.4,4.1-3.1,4.8-6.2c4.1-19.6,7.6-39.3,20.4-55.9c6.9-9,13.2-18.6,20.6-27.3
		c5-5.9,11.5-10.8,13.1-19.3c1-5.5,1.6-5.7-3.5-8.6c-9.3-5.3-19.2-9.4-29.6-12.2c-7.4-2-14.6-4.8-22.4-4.7c-2,0-3.8,0.3-5,2.2
		c-9.3,15.5-15.5,32.1-19,49.8c-1.9,9.8-2,19.8-3.1,29.7C235,294.2,234.8,314,233.5,333.7z M572.9,459.8
		c-0.2-24.3-0.1-48.6-0.9-72.9c-0.7-21-2-42-1.9-63.1c0-4-0.5-8-0.8-12c-0.1-1.1-0.4-3.2-1.9-1.6c-2.9,3.1-6.4,6-5.7,11.2
		c2.6,19,1,37.9-2.1,56.6c-2.8,17.2-7.5,34-15,49.8c-6.4,13.6-15,25.6-27,34.9c-8,6.2-8.1,6.1-1.6,14.1c0.2,0.3,0.5,0.5,0.7,0.8
		c11.8,14.8,25.5,27.8,39,40.9c4.4,4.2,9,8.2,14.1,11.5c1.5,1,3.2,1.7,2.9-1.2c-0.7-6.8,0.2-13.6,0.2-20.4
		C573,492.2,572.9,476,572.9,459.8z M336.8,275.3c-3.5,0.6-7.9,3.2-11.9,6.3c-2,1.5-0.8,3.1,0.7,4.1c6,4,10.6,9.4,15.1,15
		c6.6,8,11.6,17,17.1,25.7c4.6,7.4,8.8,15.1,15,21.4c2.3,2.3,4.3,2.7,7.1,1.3c3.3-1.6,6.6-3,9.9-4.7c17-8.9,30.9-21,39.4-38.6
		c2-4.1,3.3-8.6,5.3-12.8c1.5-3,0.9-5.2-1.2-7.6c-5.8-6.5-12.9-11-20.8-14.5c-1.8-0.8-3.5-0.7-5.3,0c-8.1,3-15.7,7.1-23.4,11
		c-5.7,2.9-10.8,6.5-14.6,11.8c-1.5,2.2-3.5,2.5-5,0.2c-3.6-5.5-8.7-9.5-13.9-13.3C346.9,278.3,343.5,274.9,336.8,275.3z
		 M413.1,451.2c-2,1-2,2.5-2.4,3.7c-5.9,15.8-12.9,31-22.6,44.9c-7.4,10.7-15.8,20.7-22.7,31.7c-1.7,2.7-3.5,5.2-4,8.5
		c-3,22.8,2.5,43.7,13.3,63.5c0.8,1.5,1.8,2.6,3.5,2.9c8.4,1.4,16.9,2.1,25.4,1.5c0.8,0,1.9,0.2,2.1-0.9c0.2-1-0.8-1.4-1.5-1.9
		c-3.5-2.9-6.6-6.1-9-10c-8.5-13.8-8-28.9-5.5-43.9c2.9-17.1,10.1-32.7,18.8-47.6c0.9-1.5,1.2-3.1,1.7-4.8c2-6.9,1.1-14,2-21
		C413.4,469.2,413.3,460.4,413.1,451.2z M179.6,693.5c1.4,0.9,2.5,0.6,3.6,0.6c40.4,0.4,80.8,0.3,121.1,0.5
		c105.3,0.6,210.7,0.2,316,0.2c1,0,1.9,0,2.9-0.1c0.6,0,1.3-0.1,1.4-0.8c0-0.4-0.3-0.9-0.7-1.2c-3.4-2.7-6.6-5.2-11.6-5.2
		c-140.3,0.1-280.5,0.2-420.8,0C186.4,687.6,183,689.9,179.6,693.5z M381.9,353.8c0.5,1.1,1.2,1,1.7,1c12.7,1.1,25.2,1.1,37.6-2.4
		c13.6-3.9,25.7-10.2,34.9-21.3c5.2-6.3,8.9-13.5,9.3-21.7c0.6-9.9,0.1-19.9,0.8-29.9c0.8-11.3,2.4-22.2,7.7-32.3
		c0.4-0.8,1.4-1.7,0.5-2.6c-0.9-1-1.8,0-2.6,0.4c-8.8,4.4-15.1,11.3-20,19.6c-7,11.9-10.8,25.2-15.8,38
		c-5.5,14.1-13.9,25.7-25.9,34.8C401.5,344,392.2,349.5,381.9,353.8z M401.4,46.1c-10.6-0.6-19.7,3.7-26,13.5
		c-7.7,12.1-3.9,32.6,9.8,39c2.9,1.3,4.2,1.4,6.4-0.7c5.1-4.8,15.1-5,20.1-0.2c2.7,2.5,4.2,2.1,7.3,0.6c13.2-6.6,16-25.4,10.6-36
		C424.1,51,414.9,45.7,401.4,46.1z M477.4,470.7c0,0.1,0,0.2,0,0.3c3.8-0.2,7.6,0,11.3-0.7c16.4-2.8,29.2-11.6,39.2-24.5
		c12.8-16.6,19.8-35.8,24.3-56c0.5-2.3-0.1-3.5-2.6-3.4c-5.2,0.2-10.4,0.4-15.5,2c-2.6,0.8-4.5,2.3-5.5,4.9
		c-2.4,6.3-5.7,12.1-9.1,17.8c-9.2,15.6-21.1,29.1-34.4,41.2c-5.8,5.3-12,10.2-18,15.4c-0.7,0.6-1.9,1.1-1.5,2.2
		c0.4,1.1,1.7,0.8,2.6,0.8C471.4,470.8,474.4,470.7,477.4,470.7z M259.5,427.5c0.3,1.3,1.3,1.4,2,1.7c15.1,6.7,26.4,17.5,34.9,31.5
		c7,11.3,11,23.8,13.8,36.7c0.5,2.2,1.2,2.7,3.1,1.5c2.4-1.5,4.9-2.8,7.3-4.1c10.8-5.9,22.2-8.4,34.4-5.2c3,0.8,6,1.6,9.2,2.4
		C356.7,467.1,285.6,423.5,259.5,427.5z M249.2,420.8c0.9,0.1,1.8,0.3,2.7,0.3c5.6-0.2,11.2,0.9,16.6,2c26,5.2,49,17.1,69.7,33.3
		c2.8,2.2,3.8,1.5,4.8-1.4c3.7-11,5.7-22.3,5.7-34c0-2.9-1.5-4.2-4.2-5c-24.7-7-49.6-7.8-74.6-2.6
		C262.8,414.9,255.8,417.1,249.2,420.8z M231,418.2c-0.2,3.6,0.3,4,3.6,2.6c8.1-3.7,16.4-6.9,24.9-9.3c2.1-0.6,3-1.5,2.5-3.9
		c-0.7-3.3-1.2-6.7-1.5-10.1c-1.9-21-0.1-41.8,2.6-62.5c0.1-1,0.9-2.4,0-3.1c-1.2-0.9-2.2,0.4-3.2,1c-1.1,0.7-2.3,1.5-3.3,2.3
		c-8.2,6.9-15.7,14.5-22.2,23.1c-1.3,1.8-2,3.5-2,5.7C232.5,382,231.6,400.1,231,418.2z M373.5,645.3c7.3,0,14.5-2,21.8-1.5
		c0.8,0.1,1.8,0.1,2.1-1c0.2-0.8-0.4-1.3-0.9-1.9c-8.8-8.5-16.1-18.2-22.2-28.8c-10.4-18.1-18.4-37-18.9-58.3c0-0.9,0.4-2.2-0.8-2.5
		c-1.1-0.3-1.5,1-2,1.8c-3.2,6.2-6.3,12.4-9.1,18.7c-3.6,8-3.2,16-0.9,24.2c4.7,16,12.1,30.7,20.4,45.1c1.8,3.2,3.9,4.8,7.5,4.3
		C371.5,645.1,372.5,645.3,373.5,645.3z M416.9,489.8c4.2-6,8.3-11.1,11.7-16.6c8-13,10.3-27.7,10.9-42.6
		c0.8-17.8-1.5-35.4-2.2-53.1c-0.1-2.3-1.3-2.8-3.3-2.9c-5.1-0.1-10.2,0.5-15.2-1.1c-2.5-0.8-2.1,1.1-1.7,2.6
		c1.3,4.8,2.2,9.7,2.1,14.8c-0.3,23.8,0.8,47.6-1.4,71.4c-0.7,7.1,0.4,14.3-1.3,21.4C416.1,485.3,416,487,416.9,489.8z M401.5,226.4
		c-3.9-0.1-7.5,1.1-11,2.3c-14.6,4.8-29.2,9.9-43.8,14.8c-2.3,0.8-3,1.7-1.6,3.9c2.5,3.8,4.2,8,4.8,12.5c0.5,3.4,2.2,3.9,5.3,3.2
		c14.6-3.2,29.3-3.3,44.1-1.1c3.7,0.6,6.8,0.1,9.5-3c5.3-6,8.5-13.2,11.8-20.4c0.7-1.5,0.3-2.9-1-3.9
		C414.4,230.1,408.6,226.8,401.5,226.4z M231.3,549.5c-0.2,3.2-0.4,6.1-0.4,9c-0.1,13.7,0,27.5-0.3,41.2c-0.1,7-1,14-1.4,21.1
		c-0.1,1.2-1.6,2.7-0.1,3.6c1.1,0.7,2.5-0.4,3.7-1c14.1-6.1,24.1-16.9,33.2-28.8c1.4-1.9,0.9-3.6,0.1-5.5
		c-6.9-15.9-16.6-29.9-29.5-41.6c-1.4-1.3-2.9-3.7-4.6-3C229.8,545.4,231.9,548,231.3,549.5z M414,504.3c1.7,0.1,2.3-0.6,2.9-1.1
		c20.2-18.4,42.4-34.4,62.7-52.8c18.4-16.7,34.1-35.2,44.3-58c0.5-1.2,1.4-2.4,0.9-4.2c-4.8,4.2-8,9.2-11.9,13.6
		c-12.4,14.1-26.1,26.5-42.8,35.2c-2.1,1.1-4.1,2.3-5.5,4.1c-5.6,7.4-12.8,12.5-21.3,16c-1.7,0.7-3.4,1.6-3.9,3.6
		c-3.2,11.7-10.6,20.9-17.4,30.5C419.1,495.2,416.4,499.5,414,504.3z M464.2,213.8c0.6-6-4.5-12.2-8.8-15.7c-1.2-1-2.3-1-2.6,0.8
		c-1.4,7.8-4.3,15.2-7.9,22.2c-3.9,7.5-8.5,14.4-16.5,18.2c-2.1,1-3.4,2.5-4.5,4.6c-3.2,6.5-6.2,13.2-11.4,18.5
		c-1.7,1.7-1,2.7,1,3.4c8.4,2.9,15.6,7.6,21.7,14.1c2.7,2.9,3.5,2.7,4.8-1.1c2.4-6.8,4.9-13.6,8.9-19.5c2.6-3.8,2.7-6.8,1.1-10.8
		c-1.7-4.4-1.3-8.7,0.9-13c1.9-3.7,5.5-5.8,8.1-8.8C462.2,223.4,464.2,219.4,464.2,213.8z M378.1,461.2c1.8-18.1-6-31.1-20.8-40.4
		c-3.2-2-3.9-1.6-3.9,2.2c-0.1,12.5-2.8,24.6-7.1,36.3c-0.8,2.1-0.6,3.5,1.1,5.1c8.6,7.5,15.8,16.1,22,25.6c0.5,0.8,0.7,2.1,1.8,2
		c1.3-0.1,1.4-1.5,1.8-2.5C376.3,480.3,379.3,471,378.1,461.2z M344.5,261.7c-0.1-9.8-5-15-14.3-14.7c-4.9,0.2-8.2-1.5-9.9-6.1
		c-0.4-1.1-1.1-2.2-1.5-3.3c-0.9-2.5-2.2-2.5-4-0.8c-8.6,8.4-15.8,18.1-22.4,28.1c-2,3.1-1.3,4.5,2.3,5.5c7,2.1,13.8,4.6,20.2,8.2
		c1.2,0.7,2.5,1.2,3.7,0.2c6.7-5.2,14.5-8.3,22.3-11.5C343.6,266.1,345,264.3,344.5,261.7z M392.8,163.7c-1.2,0-2.5-0.2-3.8,0
		c-8.2,1.5-16.7,2.4-21.1,11.3c-1.2,2.6-1.5,4.7-0.1,7.2c1.5,2.6,2.9,5.4,4.2,8.1c2.2,4.5,2,4.3,5.7,1.1c3.8-3.2,7.7-6.3,11.9-9
		c5.1-3.2,9-1.1,9.7,4.7c0.4,3.2,1.3,6.2,2.6,9.1c1.4,2.9,2.6,3.2,5.1,0.9c5.2-4.9,9-4.7,14.3,0.3c0.9,0.8,1.7,1.7,2.6,2.5
		c0.5,0.5,1.1,1.2,1.8,0.6c0.3-0.3,0.4-1.2,0.2-1.7c-1.3-4.7-2-9.5-3.6-14.1C418.7,174.5,405.3,161.9,392.8,163.7z M470.2,417.3
		c0,4.1,0,6.9,0,9.7c0,3.7,0.5,4,3.7,2.2c11.5-6.8,21.4-15.5,30.4-25.2c2.4-2.6,3.6-5.8,3.7-9.3c0.1-3.4,0.2-6.8,0-10.2
		c-0.3-6-2-6.8-7.1-3.8c-9.7,5.7-20.1,9.7-31.6,9.9c-4,0.1-4.4,0.4-3,4.2C469.2,402.5,471,410.4,470.2,417.3z M427.8,233.5
		c1.3,0,1.9-0.8,2.6-1.4c11.9-12.7,18.9-27.4,17.6-45.1c-1-14.2-19.9-26.7-34-22.7C434.7,184.1,432.7,208.4,427.8,233.5z
		 M336.3,591.9c-3.7,8.9-5.4,17.6-6.9,26.3c-1.1,6.8-2.8,13.5-3,20.5c-0.1,3.4,1.2,4.8,4.5,5.2c7.6,1,15.2,1.5,22.9,1.3
		c1.6,0,3.8,0.9,4.7-0.9c0.7-1.4-0.8-2.9-1.6-4.2c-5.8-9.3-10.1-19.3-14.3-29.5C340.1,604.8,338.3,598.7,336.3,591.9z M464.2,197.6
		c-0.1,1.7,0.7,2.4,1.1,3.2c4.8,8.8,5.1,17.6,0.1,26.3c-2,3.4-5.1,5.8-7.9,8.5c-3.3,3.4-4,7.3-2.8,11.8c0.5,1.8,1.6,2.4,3.2,1
		c8.9-8.3,19.2-12.5,31.5-11.5c3.8,0.3,4.7-1.3,3.6-5.1c-1.7-6-4.4-11.6-8-16.7C479.7,207.6,473.1,201.4,464.2,197.6z M381.4,265.2
		c-4.5,0.2-8.1,0.5-11.6,0.5c-7.5,0-14.6,2.4-21.7,4.3c-0.8,0.2-1.8,0.5-1.8,1.5c0,0.8,0.8,1.2,1.4,1.5c6.2,3.7,11.8,8.2,16.6,13.5
		c1.8,2,3.4,1.9,5.2,0c2.2-2.4,4.9-4.3,7.7-6.1c6.7-4.2,13.8-7.7,21-10.9c0.9-0.4,2.5-0.5,2.4-1.9c-0.2-1.2-1.7-1.2-2.7-1.3
		C392,265.9,386.2,265.5,381.4,265.2z M557.8,325.9c-1.6,0-1.8,0.8-2.3,1.3c-2.9,3.4-3.3,7.7-4.5,11.8c-4.4,14-9.2,27.9-15.4,41.3
		c-0.3,0.6-0.7,1.5-0.4,2c0.3,0.8,1.3,0.4,1.9,0.2c4.3-1.2,8.7-0.8,13.1-0.8c2.7,0,4.1-0.9,4.5-3.5c0.2-1.6,0.6-3.1,0.8-4.7
		c0.7-5.4,1.3-10.9,1.9-16.3C558.4,346.9,557.6,336.5,557.8,325.9z M400.3,205.6c-0.1-1.6-0.7-2.6-1.4-3.6
		c-2.5-3.6-3.8-7.7-4.6-11.8c-0.5-3.2-1.7-2.9-3.7-1.6c-0.8,0.5-1.7,1-2.3,1.7c-5.9,6.3-12.9,11.5-18.3,18.3
		c-0.7,0.8-1.8,1.5-1.6,2.7c0.3,1.4,1.7,1,2.7,1.3c7.3,1.9,14.8,3,20.4,9c1.7,1.9,3.1,0.5,3.6-1.5c1.1-4.3,2.5-8.4,4.6-12.3
		C400.1,207,400.2,206.2,400.3,205.6z M362.6,649.9c-7.8,0-13.9,0-20,0c-0.8,0-1.9-0.3-2.3,0.7c-0.5,1.2,0.7,1.7,1.5,2.1
		c7.5,4.5,15.1,8.9,22.6,13.3c2.1,1.2,4.1,1.2,6.2,0c7.9-4.7,15.9-9.3,23.9-14c1.1-0.6,3-1.2,2.6-2.7c-0.4-1.7-2.3-0.9-3.5-0.9
		C382.6,649,371.8,650.6,362.6,649.9z M371.8,228.2c-8-0.7-15.3-1.5-21.3,4.3c-2.5,2.4-4.3,1.9-6.3-0.7c-4-5.2-8.9-9.2-15.3-11.3
		c-3.2-1.1-5,0-6.3,3c-2.1,5-0.5,9.5,1.7,13.9c2.3,4.5,4.5,5.6,9.4,4.4c11.6-2.9,22.8-7.1,34.1-10.9
		C369.1,230.6,370.4,230.1,371.8,228.2z M426.5,214.7c0.1-2.8-0.8-5-2.9-6.9c-2.1-1.9-3.9-4-6-5.9c-2.8-2.6-4.8-2.6-7.6,0.1
		c-4.5,4.5-7.1,10.1-9.3,15.9c-0.5,1.4-0.2,2.3,1.5,2.6c6.8,1.3,12.8,4.4,18.6,8c1.5,1,2.5,0.8,2.9-1.1
		C424.7,223.2,425.6,219,426.5,214.7z M543.8,343c-3.4,3.9-6.3,7.4-9.3,10.6c-6.2,6.7-13,12.7-20.3,18.2c-2.5,1.9-3.8,3.9-2.4,7.1
		c1.1,2.7,1.4,5.6,1.5,8.6c0,1.3-0.6,3.1,0.8,3.6c1.5,0.6,2.1-1.3,2.9-2.2c5.9-6.7,10.1-14.9,17.9-20c0.7-0.5,1-1.6,1.4-2.5
		c2.2-5.8,4.4-11.6,6.5-17.4C543.4,347.4,544.4,345.8,543.8,343z M369.5,401.1c0.9-2.5,0.6-4.3,0.5-6.1c-0.3-12,4-22,12.5-30.4
		c1.1-1.1,3.4-2,2.8-3.8c-0.5-1.6-2.8-0.7-4.3-1.4c-0.8-0.3-1.7-0.4-2.4-0.9c-2-1.4-3.8-1-5.8,0c-10.7,5.4-14.8,16.1-10.9,29
		C363.5,392.4,365.3,397.1,369.5,401.1z M398.6,360.9c0.1,0.7,0.7,1,1.2,1.2c7.6,2.8,15.1,6.2,23.1,7.5c7.7,1.3,15.5,1.1,22.7-2.9
		c2.1-1.2,2.6-2.5,0.5-4.1c-2.4-1.9-4.8-3.7-7.1-5.6c-3.4-2.7-7-3.4-11.2-1.8c-8.5,3-17.2,5.2-26.3,4.8
		C400.5,360,399.3,359.6,398.6,360.9z M355.2,212.4c2-0.5,5.1,1.1,6.7-2.1c1.3-2.5,3.1-4.6,5-6.7c2.7-3,1.1-13.1-2.4-15.2
		c-0.4-0.2-0.9-0.4-1.3-0.5c-4.8-1.1-9.3,0.6-12,4.9c-1.5,2.5-2.9,5.1-3.8,7.9C344.7,208.8,347,212.4,355.2,212.4z M402.1,99.3
		c-6.1,0-11.2,4.7-11.3,10.4c-0.1,6,5.1,11.3,11,11.4c6,0.1,11.2-5.1,11.3-11C413.1,104.3,408.1,99.3,402.1,99.3z M476.8,312.5
		c-6.2,0-6.2,0-8,5.9c-0.2,0.7-0.4,1.4-0.7,2.1c-0.6,1.6-0.1,2.8,1.2,3.8c5.8,4.2,10.1,9.7,12.8,16.4c0.3,0.8,0.6,1.7,1.7,1.6
		c0.8-0.1,1.1-0.9,1.3-1.6c2-5.9,3.7-11.8,3-18.1C487.5,315.9,483.5,312.4,476.8,312.5z M330.4,211.7c-1.3,0.2-3.7-0.6-4,2
		c-0.3,2.4,2.1,1.9,3.4,2.3c5.9,1.6,10.9,4.6,14.9,9.3c2,2.4,3.7,2.4,6.5,0.9c8.7-4.8,17.6-5.9,26.5-0.1c0.7,0.5,1.5,0.9,2.4,0.6
		c2-0.7,5.1-0.5,5.5-2.7c0.3-2.2-2.6-2.7-4.5-3.5c-10.6-4.2-21.6-4-32.6-2.6c-2.4,0.3-4.2-0.1-6.1-1.4
		C338.9,213.9,335.3,211.6,330.4,211.7z M461.3,353.9c0.6-4.4-0.5-9.4-2.3-14.2c-0.5-1.4-1.2-2.7-2.8-1.2c-4.5,4.3-9.4,8-14.9,11
		c-1.7,0.9-1.9,2.1-0.1,3.3c6,4,11,9.1,16,14.2c1.5,1.6,2.3,1.2,2.9-0.9C461.4,362.4,461.5,358.5,461.3,353.9z M404.2,371.3
		c0.1-1.3-0.4-2.1-1.3-2.6c-3.4-1.6-6.7-3.4-10.3-4.6c-3-1-4.5,1.8-6.3,3.4c-1.3,1.2-1.8,2.5-0.9,4.2c2.8,5.5,5.7,11,8.4,16.5
		c1.2,2.3,2.2,1.9,3.1-0.1c1.6-3.4,3.2-6.8,4.7-10.3C402.6,375.6,403.4,373.4,404.2,371.3z M405.7,453.9c0.3-0.8,0.6-1.6,0.9-2.4
		c3.3-9.1,5.7-18.5,7.3-28.1c0.2-0.9,0.9-2.1,0-2.7c-1.2-0.8-1.9,0.7-2.6,1.4c-3.7,3.6-7.8,6.5-12.6,8.4c-2.3,0.9-2.7,1.8-1.6,3.9
		c3,6,5.7,12,7.3,18.6C404.4,453.5,404.6,453.9,405.7,453.9z M436.4,109.4c-0.1-5-4.2-9.1-9.1-9c-5.3,0.1-9.7,4.4-9.6,9.4
		c0.2,5.5,4.1,9.3,9.7,9.1C432.7,118.7,436.5,114.7,436.4,109.4z M376.8,118.9c5.5,0,9.4-4,9.3-9.5c-0.1-4.8-4.6-9.1-9.7-9
		c-4.7,0.1-8.9,4.5-8.9,9.4C367.4,115,371.4,118.9,376.8,118.9z M366.8,520.5c3.2-4.5,6.5-9,9.6-13.6c1.4-2.1-0.4-7.5-2.3-7.5
		c-3.3,0.1-6.1-1.4-9.2-1.9c-1.4-0.2-2.8-0.1-2.2,1.7C364.9,506,365.2,513.1,366.8,520.5z M342.6,559.6c0.2,0,0.4,0.1,0.7,0.1
		c4-7.3,8.1-14.5,12.1-21.8c0.8-1.5-0.4-1.9-1.5-2.2c-2.7-0.7-5.4-1.3-8.1-2c-2.3-0.7-3,0-2.9,2.4c0.3,5.3,0.3,10.7-0.2,16
		C342.4,554.6,342.6,557.1,342.6,559.6z M344.7,192.2c-6.4,2.8-10.2,6.8-13.1,11.9c-0.8,1.5-0.5,2.3,1.1,2.6
		c2.2,0.5,4.5,0.7,6.6,1.9c1.6,0.9,2.3-0.1,2.2-1.6C341.1,202.1,342.4,197.5,344.7,192.2z M382.6,158.4c5.2,0,10.1,0,14.9,0
		c2.6,0,3.3-1,2.2-3.3c-0.6-1.2-1.2-2.4-1.8-3.6c-1.1-2-2.9-2.7-4.9-1.6C389.2,152.3,385.3,154.5,382.6,158.4z"/>
</g>
</svg>
