<?xml version="1.0" encoding="UTF-8" standalone="no"?>
<!-- Created with Inkscape (http://www.inkscape.org/) -->

<svg
   xmlns:dc="http://purl.org/dc/elements/1.1/"
   xmlns:cc="http://creativecommons.org/ns#"
   xmlns:rdf="http://www.w3.org/1999/02/22-rdf-syntax-ns#"
   xmlns:svg="http://www.w3.org/2000/svg"
   xmlns="http://www.w3.org/2000/svg"
   xmlns:sodipodi="http://sodipodi.sourceforge.net/DTD/sodipodi-0.dtd"
   xmlns:inkscape="http://www.inkscape.org/namespaces/inkscape"
   version="1.1"
   id="svg5084"
   width="531"
   height="700"
   viewBox="0 0 531 700"
   sodipodi:docname="tracedrose.svg"
   inkscape:version="0.92.3 (2405546, 2018-03-11)">
  <sodipodi:namedview
     pagecolor="#ffffff"
     bordercolor="#666666"
     borderopacity="1"
     objecttolerance="10"
     gridtolerance="10"
     guidetolerance="10"
     inkscape:pageopacity="0"
     inkscape:pageshadow="2"
     inkscape:window-width="1605"
     inkscape:window-height="1143"
     id="namedview5086"
     showgrid="false"
     inkscape:zoom="0.953584"
     inkscape:cx="100.44024"
     inkscape:cy="287.08451"
     inkscape:window-x="1212"
     inkscape:window-y="717"
     inkscape:window-maximized="0"
     inkscape:current-layer="svg5084" />
  <metadata
     id="metadata5090">
    <rdf:RDF>
      <cc:Work
         rdf:about="">
        <dc:format>image/svg+xml</dc:format>
        <dc:type
           rdf:resource="http://purl.org/dc/dcmitype/StillImage" />
        <dc:title></dc:title>
      </cc:Work>
    </rdf:RDF>
  </metadata>
  <defs
     id="defs5088" />
  <path
     id="path5098"
     transform="translate(0,0) scale(1,1)"
     style="stroke-width:4.68598837;stroke:#080000;stroke-linecap:round;fill:none;stroke-opacity:1"
     d="M279 64C269.423 55.8584 261.314 55.1707 252 64C245.765 59.1016 240.017 57.655 236.671 50C234.287 44.5481 231.91 39.0861 232.055 33C233.016 -7.39453 298.786 -5.59094 297.985 35C297.877 40.4405 296.499 45.1508 294.115 49.9992C290.535 57.2789 284.969 58.9291 279 64M239 56C235.121 58.8546 230.991 61.3037 229.148 66.0008C227.771 69.5092 229.093 74.4507 225.762 76.9113C219.555 81.4974 208.288 82.6738 201 85.4252C187.452 90.5397 174.732 97.9918 163 106.428C110.99 143.827 98.5878 202.003 95.9606 262C95.2554 278.106 90.3604 298.304 95 314L118 293.529L130.347 284.942L144.796 236.04L170.428 201L181.49 190.505L187 176C191.572 178.41 196.741 179.625 201 182.637C204.117 184.842 206.947 188.84 211 189.238C216.607 189.788 222.088 185.027 228 185.029C233.559 185.031 237.727 189.649 243.004 189.072C246.657 188.672 253.194 185.818 249.508 181.387C240.247 170.253 223.404 177.266 212 174.585C205.558 173.07 198.96 168.081 192.019 168.757C187.958 169.152 187.257 172.605 187 176M293 58C302.924 62.762 306.418 77.308 293 80.5803C287.219 81.9901 284.096 77.2642 279 77.3295C274.962 77.3812 272.1 82.0452 268 82.7708C260.614 84.0778 258.021 77.8823 251.91 77.1682C248.735 76.7972 245.967 79.8162 243 80.5695C237.499 81.9662 233.265 79.0162 229 76M252 64L252 76M279 64L279 76M303 77C306.62 78.1577 312.931 78.8189 315.107 82.2786C317.498 86.0801 313.951 92.2099 312.86 96C309.861 106.419 306.913 118.05 307.953 129C308.434 134.069 312.31 147.55 315.028 151.686C316.731 154.278 320.481 154.421 322.737 156.433C327.539 160.715 330.236 168.714 329.953 175C329.517 184.67 306.988 201.597 317.728 210.288C320.683 212.679 335.439 202.119 341 202C334.164 225.575 332 245.393 332 270C335.296 270 338.743 269.741 342 270.329C365.2 274.519 347.768 299.324 346 311M317 83C330.376 83.285 343.822 91.6923 355 98.3997C391.07 120.044 417.95 156.152 427.87 197C433.246 219.135 432.184 242.441 434.031 265C439.424 330.881 439.784 397.784 438.996 464C438.552 501.295 434.979 540.859 440.3 578C443.506 600.378 460.787 627.013 476.455 642.701C484.597 650.852 495.629 656.619 504 665C510.801 671.809 517.007 679.141 522.572 687C524.263 689.389 527.747 693.44 525.917 696.566C522.924 701.68 506.163 699 501 699L427 699L116 699L31 699C26.011 699 6.72768 701.771 4.24074 696.566C0.916158 689.609 17.5185 674.498 21.4244 670C30.9763 658.999 44.1292 652.873 54.1165 643.157C66.0935 631.506 76.3581 614.215 83.1389 599C95.4938 571.278 91.6478 537.929 92.0039 508C92.4901 467.13 92.1512 425.973 92.1512 385C92.1512 361.929 91.1076 337.887 94 315M266 121C261.316 121 239.196 124.085 245.533 115.042C248.586 110.686 258.33 103.819 263.03 109.318C265.799 112.557 265.257 117.389 268.316 120.367C279.681 131.429 289.377 140.232 291.494 157C294.387 179.918 287.862 206.692 271.505 223.701C264.682 230.796 256.435 234.156 248 238.862C242.89 241.713 236.639 248.392 231 249.542C223.399 251.093 212.994 234.661 205 232.653C195.005 230.142 190.154 240.882 181.91 241.882C174.537 242.777 160.151 233.759 153 231M243 120C236.391 124.861 225.976 132.225 228.028 142C229.298 148.05 235.185 152.137 234.752 159C234.43 164.087 229.997 167.989 229 173M274 123C284.954 117.156 296.458 126.496 307 129M207 172C207.043 156.587 210.986 147.886 226 144M237 158C241.69 155.298 251.887 142.794 257.697 146.072C261.861 148.421 264.074 158.891 267 163C277.706 155.341 279.391 159.141 290 164M127 150C147.894 153.937 169.425 159.449 187 172M192 168C192.982 158.473 201.421 150.284 211 150M314 155C312.31 168.305 304.59 193.594 289 196M324 157C333.049 153.103 344.632 166.428 349.522 173C353.153 177.88 356.055 183.188 357.907 189C358.728 191.579 358.356 196.007 360.603 197.825C366.062 202.24 380.08 202.646 387 205.003C402.298 210.215 415.598 218.124 429 227M266 164L261.777 181.566L269 184.325L286 192M252 185L260 184M239 189C229.739 196.086 216.274 195.354 207.192 202.086C204.171 204.325 209.652 223.808 213.279 225.382C217.763 227.328 226.273 224.069 231 223.425C241.223 222.034 257.764 221.071 267 226M182 192C188.798 201.936 191.441 204.596 204 204M342 201L358 199M318 212C314.737 223.835 306.77 234.614 302.07 246C295.695 261.443 292.394 275.528 279.961 287.961C268.747 299.174 253.585 303.93 242 314C251.725 321.03 260.027 318.341 271 317.166C296.254 314.462 328.652 299.747 331 271M211 225L205 232M271 226L287 233.699L302 245M185 244C190.028 250.99 197.393 256.146 202.789 263C211.198 273.678 217.543 285.686 225.003 297C229.121 303.245 234.034 312.745 242 314M436 494C416.403 484.416 398.783 463.391 384.729 447C381.159 442.837 371.31 434.236 372.666 428.015C374.207 420.946 389.079 412.125 393.764 406C406.582 389.242 417.941 365.461 418 344C413.169 344 398.697 346.879 395.778 342.681C392.49 337.954 401.798 327.65 403.576 323C409.443 307.653 411.904 294.496 421.161 280.83C425.071 275.058 426.373 269.51 433 266M421 282C423.452 286.595 422.692 290.958 423.17 296C424.461 309.623 425.017 331.83 418 344M330 286C337.827 290.937 341.474 298.254 346 306M129 290L125.571 339L128 371C159.649 370.913 190.849 363.2 221 378.915C240.747 389.207 246.04 410.396 243.826 431C243.094 437.82 239.792 444.158 239.142 451C238.594 456.769 244.251 461.392 242.188 467C239.556 474.156 233.164 478.795 228.498 484.375C225.642 487.791 224.866 492.421 222 496C218.545 493.855 209.583 489.048 205.603 492.042C201.026 495.488 203.507 517.949 205 523C212.46 519.331 221.575 504.287 222 496M322 295C327.146 302.559 327.802 312.064 326.826 321C326.521 323.794 325.692 329.644 321.891 329.659C315.308 329.684 303.973 315.666 300 311M259 321C266.359 329.561 278.544 330.798 289 332.271C292.244 332.728 298.962 331.377 301.397 333.643C305.264 337.241 303.821 350.032 304.039 355C304.624 368.334 305.314 381.599 304.985 395C304.824 401.57 302.377 408.576 304 415C326.867 406.722 332.999 390.538 330.91 368C330.491 363.473 324.681 353.657 327.201 349.603C328.718 347.165 333.599 348.064 336 347.83C342.794 347.17 349.8 345.57 356 342.677C369.925 336.179 380.883 326.313 391.961 315.83C397.682 310.416 401.845 303.712 409 300M237 314C226.385 323.186 219.306 330.988 222.899 346C223.742 349.524 228.368 365.84 234.4 362.744C237.559 361.122 235.954 351.08 236.439 348C238.264 336.407 245.992 329.588 252 320M313 326L303 333M270 330C267.894 337.699 264.381 347.989 258 353L245 331M278 332C279.625 344.586 284.297 361.563 279.397 373.946C276.129 382.203 263.516 383.839 258.708 390.495C255.944 394.323 265.249 414.191 268 418C277.544 407.302 283.239 391.342 279 377M372 336L376 355L392 344C383.512 384.603 342.71 413.918 313 438.586C301.415 448.205 289.457 461.307 276 468C273.372 458.418 280.709 452.926 285.844 445.999C293.151 436.143 297.374 425.675 303 415M394 342L392 344M375 356C367.662 370.95 348.765 389.39 332 393M93 385C105.584 384.46 115.798 377.259 127 372M214 377C214 386.919 214.004 396.313 211.522 406C210.241 410.997 206.145 417.802 207.868 423C210.228 430.12 218.943 435.238 223.482 441C228.426 447.275 229.096 454.784 238 455M109 383C120.533 389.252 133.01 394.83 143 404.09C158.629 418.578 171.873 442.089 171.112 464C170.301 487.349 155.805 515.11 144.421 535C133.299 554.433 114.235 585.844 89 587M121 385C153.982 385.004 177.642 406.427 205 421M277 407C283.585 419.338 277.111 438.609 277 452M267 419C265.762 434.661 255.702 451.784 245 463M327 432C342.793 435.76 355.848 429.519 371 428M172 462L201 451.3L229 455M223 455L227 483M275 468C257.862 485.549 249.936 518.281 255.895 542C258.38 551.89 265.854 566.251 277 568M93 500C111.736 512.89 121.855 530.905 133 550M219 507C222.124 512.855 221.549 520.488 222.805 527C225.193 539.382 229.007 552.017 235.337 562.999C240.334 571.668 248.556 581.252 255.134 589C258.376 592.818 264.591 597.806 265.353 603C266.848 613.177 249.784 619.602 243 623.576C239.202 625.801 233.033 628.783 236.492 633.961C247.996 651.178 272.106 646 290 646L424 646C438.148 646 464.004 650.918 476 643M267 604C287.083 603.998 305.941 596.447 324 588.306C352.554 575.433 380.11 559.274 406 541.656C416.334 534.624 425.995 524.702 437 519M205 523L189.92 582L188.117 602.892L197.91 609.086L214 620.989L234 630M200 549C208.903 560.67 212.346 579.597 219.258 593C221.011 596.398 223.075 604.412 226.317 606.347C235.601 611.89 254.521 606 265 606M272 567L245 573M200 609L223 607M245 643C232.832 651.031 206.361 646 192 646C146.608 646 101.366 645 56 645M41 654C49.121 658.334 61.9329 656 71 656L138 656L384 656L458 656C467.55 656 481.458 658.558 490 654" />
</svg>
